# xmcd CD database file
#
# Track frame offsets:
#	182
#	25885
#	31155
#	41750
#	52812
#	66672
#	75910
#	92867
#	100637
#	108195
#	120830
#	136152
#	140752
#	150022
#	169885
#	183475
#	193760
#	210662
#	221207
#	235510
#	247252
#	274257
#	285817
#	294190
#	303647
#	315942
#
# Disc length: 4459 seconds
#
# Revision: 3
# Processed by: cddbd v1.5.2PL0 Copyright (c) Steve Scherf et al.
# Submitted via: CDex 1.78
#
DISCID=6211691a
DTITLE=Dumitru Farcas - Tresors Folkloriques Roumains
DYEAR=1900
DGENRE=Country
TTITLE0=Suita din Tara Motilor
TTITLE1=Maruntel din Grosi
TTITLE2=Tarina mare
TTITLE3=Barbatesc din Apuseni
TTITLE4=Cantec batranesc din Grosi
TTITLE5=Tarina din Ponorel
TTITLE6=Du-te, dor, in munti de piatra
TTITLE7=Invartita din Glod
TTITLE8=Marie, draga Marie
TTITLE9=Joc din Transilvania
TTITLE10=Mara, pe marginea ta
TTITLE11=Jurelul fetelor
TTITLE12=Romanesc de pe Valea Almasului
TTITLE13=Colo-n muntii Tebei
TTITLE14=Barbatesc din Maramures
TTITLE15=Ciobanelul
TTITLE16=Aseara-n gradina
TTITLE17=De sarit din Grosi
TTITLE18=Mana, Gheorghe, boii bine
TTITLE19=Mireasa, cununa ta
TTITLE20=Sambra oilor din Maramures
TTITLE21=Fecioreasca de pe Mures
TTITLE22=Roata feciorilor
TTITLE23=Crihalma
TTITLE24=De strigat
TTITLE25=Horea lui Pintea Viteazul
EXTD=
EXTT0=
EXTT1=
EXTT2=
EXTT3=
EXTT4=
EXTT5=
EXTT6=
EXTT7=
EXTT8=
EXTT9=
EXTT10=
EXTT11=
EXTT12=
EXTT13=
EXTT14=
EXTT15=
EXTT16=
EXTT17=
EXTT18=
EXTT19=
EXTT20=
EXTT21=
EXTT22=
EXTT23=
EXTT24=
EXTT25=
PLAYORDER=
